<svg width="20" height="20" viewBox="0 0 128 128" fill="none" xmlns="http://www.w3.org/2000/svg">
<path d="M103.877 27.0059C98.5473 21.7133 92.2136 17.5387 85.2483 14.7269C78.2829 11.9152 70.826 10.5231 63.3154 10.6322C49.2161 10.597 35.6803 16.1641 25.6857 26.1088C15.6911 36.0536 10.0564 49.5614 10.0212 63.6606C9.98591 77.7599 15.553 91.2957 25.4978 101.29C35.4425 111.285 48.9503 116.92 63.0495 116.955C66.0877 117.006 69.057 116.048 71.4913 114.229C73.9256 112.411 75.6872 109.835 76.4994 106.907C77.0171 104.793 77.0117 102.584 76.4838 100.472C75.9558 98.3601 74.921 96.4086 73.4692 94.7866C73.1335 94.4045 72.9144 93.9342 72.838 93.4313C72.7616 92.9285 72.8311 92.4143 73.0382 91.9498C73.2452 91.4853 73.5812 91.0899 74.0063 90.8107C74.4313 90.5314 74.9276 90.3799 75.4361 90.3742H84.2077C92.4634 90.4128 100.428 87.3267 106.502 81.7356C112.577 76.1444 116.311 68.4623 116.955 60.2317C117.153 54.0948 116.095 47.9823 113.846 42.2688C111.597 36.5554 108.205 31.3616 103.877 27.0059V27.0059ZM84.4204 79.7419H75.6488C73.0871 79.7274 70.5762 80.4565 68.4207 81.8408C66.2652 83.2252 64.5577 85.2052 63.5053 87.5408C62.4529 89.8763 62.1008 92.4671 62.4917 94.9988C62.8826 97.5306 63.9997 99.8945 65.7076 101.804C66.0402 102.139 66.2752 102.559 66.3876 103.018C66.4999 103.477 66.4854 103.958 66.3455 104.409C66.0797 105.525 64.857 106.216 63.209 106.323C57.1716 106.245 51.2199 104.883 45.7497 102.327C40.2796 99.7709 35.4164 96.0794 31.4836 91.4979C27.5509 86.9164 24.6388 81.55 22.941 75.7557C21.2432 69.9615 20.7986 63.8721 21.6369 57.8926C23.1529 47.8449 28.1734 38.6569 35.8104 31.9538C43.4475 25.2507 53.209 21.4644 63.3685 21.2645H63.7938C69.8055 21.1858 75.7721 22.3118 81.3417 24.5761C86.9112 26.8405 91.9709 30.1973 96.2222 34.4485C99.5395 37.7679 102.146 41.7282 103.882 46.0879C105.619 50.4476 106.449 55.1153 106.323 59.8064C105.772 65.2452 103.232 70.2887 99.1891 73.9684C95.1465 77.648 89.8868 79.7042 84.4204 79.7419V79.7419Z" fill="white"/>
<path d="M63.7935 42.529C68.1976 42.529 71.7677 38.9588 71.7677 34.5548C71.7677 30.1508 68.1976 26.5806 63.7935 26.5806C59.3895 26.5806 55.8193 30.1508 55.8193 34.5548C55.8193 38.9588 59.3895 42.529 63.7935 42.529Z" fill="white"/>
<path d="M81.0707 38.2761C79.7053 39.0648 78.6045 40.2406 77.9072 41.6548C77.21 43.0691 76.9476 44.6583 77.1534 46.2215C77.3591 47.7848 78.0237 49.252 79.0631 50.4377C80.1026 51.6234 81.4701 52.4743 82.9931 52.8829C84.516 53.2914 86.1258 53.2394 87.6192 52.7332C89.1125 52.2271 90.4222 51.2896 91.3829 50.0392C92.3435 48.7888 92.9118 47.2818 93.0161 45.7084C93.1204 44.1351 92.7559 42.5662 91.9687 41.2C91.4456 40.292 90.7486 39.496 89.9176 38.8576C89.0866 38.2192 88.1379 37.7508 87.1257 37.4792C86.1136 37.2077 85.0579 37.1383 84.0189 37.275C82.9799 37.4118 81.9781 37.7519 81.0707 38.2761V38.2761Z" fill="white"/>
<path d="M46.5165 38.2761C45.1503 37.4889 43.5814 37.1244 42.0081 37.2287C40.4348 37.333 38.9277 37.9014 37.6773 38.862C36.4269 39.8226 35.4894 41.1324 34.9833 42.6257C34.4771 44.119 34.4251 45.7289 34.8337 47.2518C35.2422 48.7747 36.0931 50.1423 37.2788 51.1817C38.4645 52.2211 39.9317 52.8857 41.495 53.0915C43.0583 53.2972 44.6475 53.0349 46.0617 52.3376C47.4759 51.6404 48.6517 50.5395 49.4404 49.1742C49.9646 48.2667 50.3048 47.2649 50.4415 46.2259C50.5782 45.187 50.5088 44.1312 50.2373 43.1191C49.9657 42.107 49.4974 41.1583 48.8589 40.3273C48.2205 39.4963 47.4245 38.7993 46.5165 38.2761V38.2761Z" fill="white"/>
<path d="M32.748 59.8596C31.44 60.7427 30.4235 61.9941 29.8272 63.4553C29.2309 64.9165 29.0816 66.5217 29.3982 68.0678C29.7147 69.6139 30.4829 71.0313 31.6055 72.1406C32.7281 73.2498 34.1546 74.001 35.7044 74.299C37.2542 74.5971 38.8575 74.4285 40.3115 73.8148C41.7654 73.201 43.0045 72.1697 43.8719 70.8513C44.7394 69.5328 45.1961 67.9867 45.1843 66.4086C45.1724 64.8304 44.6926 63.2913 43.8055 61.986C43.2227 61.1161 42.4732 60.3702 41.6004 59.7918C40.7276 59.2133 39.7487 58.8136 38.7204 58.6159C37.6921 58.4181 36.6348 58.4262 35.6096 58.6397C34.5845 58.8532 33.6118 59.2678 32.748 59.8596V59.8596Z" fill="white"/>
</svg>
